# xmcd CD database file
#
# Track frame offsets:
#	150
#	44150
#	73213
#	115620
#	143200
#	188401
#
# Disc length: 3011 seconds
#
# Revision: 0
# Processed by: cddbd v1.5.2PL0 Copyright (c) Steve Scherf et al.
# Submitted via: CDex 1.51
#
DISCID=550bc106
DTITLE=Medwyn Goodall - Earth Goddess
DYEAR=2007
DGENRE=New Age
TTITLE0=Amulet
TTITLE1=Sungrass
TTITLE2=Totem
TTITLE3=Shadows Of The Mind
TTITLE4=Goddess Power
TTITLE5=Topaz
EXTD=YEAR: 2007
EXTT0=
EXTT1=
EXTT2=
EXTT3=
EXTT4=
EXTT5=
PLAYORDER=
